<svg id="Group_167" data-name="Group 167" xmlns="http://www.w3.org/2000/svg" xmlns:xlink="http://www.w3.org/1999/xlink" width="297.65" height="116.395" viewBox="0 0 297.65 116.395">
  <defs>
    <clipPath id="clip-path">
      <rect id="Rectangle_1113" data-name="Rectangle 1113" width="297.65" height="116.395" fill="none"/>
    </clipPath>
  </defs>
  <g id="Group_166" data-name="Group 166" clip-path="url(#clip-path)">
    <path id="Path_67" data-name="Path 67" d="M292.313,38.113,242.632,0S138.5.341,133.055,1.465,95.283,28.246,95.283,28.246L41.857,35.39S12.252,51.044,6.127,53.767,0,79.63,0,79.63,19.056,91.2,26.2,90.179l10.549-26.2S57.851,68.4,66.7,67.721s17.7,27.223,16.677,27.223c1.032.078,133.749,5.047,135.778-2.383,2.042-7.487,10.209-22.118,31.647-24.5s25.52,16.334,26.883,18.716,8.846-.682,10.209-1.022,8.847-32.668,8.847-32.668Zm-129.8,5.308s-63.054,1.746-65.454-1.552,35.125-30.52,36.218-30.085,30.761-1.089,33.818-1.113-3.492,25.549-4.582,32.749m81.16-3.054c-3.053,2.182-55.2,1.525-63.272.872s-4.361-19.852-5.235-30.326c0,0,47.345-1.31,52.363,2.182s19.2,25.09,16.145,27.272" transform="translate(0 -0.001)" fill="#8d93ab"/>
    <path id="Path_68" data-name="Path 68" d="M839.279,273.662A21.578,21.578,0,1,1,817.7,252.084a21.578,21.578,0,0,1,21.578,21.578" transform="translate(-564.823 -178.845)" fill="#f1f3f9"/>
    <path id="Path_69" data-name="Path 69" d="M144.749,263.783a21.578,21.578,0,1,1-21.578-21.578,21.578,21.578,0,0,1,21.578,21.578" transform="translate(-72.076 -171.837)" fill="#f1f3f9"/>
    <path id="Path_70" data-name="Path 70" d="M510.68,168.04l.993,5.324,16.822-3.62s2.129-3.72,0-3.457-17.815,1.754-17.815,1.754" transform="translate(-362.311 -117.965)" fill="#d6e0ef"/>
    <path id="Path_71" data-name="Path 71" d="M774.291,165.649c.213.7,16.777,3.684,19.142,2.193s-1.255-1.618-1.894-2.193-17.248,0-17.248,0" transform="translate(-549.334 -117.341)" fill="#d6e0ef"/>
    <path id="Path_72" data-name="Path 72" d="M393.907,102.109c0-2.13,2.122-83.473,2.122-83.473s-37.044-3.194-41.3,0-37.478,38.543-37.478,38.543-1.065,44.292,0,44.931S393.907,102.109,393.907,102.109Z" transform="translate(-224.742 -12.214)" fill="none" stroke="#d6e0ef" stroke-linecap="round" stroke-linejoin="round" stroke-width="5"/>
    <path id="Path_73" data-name="Path 73" d="M591.913,24.07l-2.35,81.77,46.216-1.277c.426-8.944,19.64-28.108,27.388-27.044s8.813-17.906,8.813-18.641S647.065,24.283,646.214,24.07,591.913,24.07,591.913,24.07Z" transform="translate(-418.276 -17.01)" fill="none" stroke="#d6e0ef" stroke-linecap="round" stroke-linejoin="round" stroke-width="5"/>
    <path id="Path_74" data-name="Path 74" d="M976.757,130.916a14.8,14.8,0,0,0-12.029,3.755l2.045,13.531h13.867" transform="translate(-684.443 -92.804)" fill="none" stroke="#d6e0ef" stroke-linecap="round" stroke-linejoin="round" stroke-width="10"/>
  </g>
</svg>
