<svg xmlns="http://www.w3.org/2000/svg" width="327.712" height="246.259" viewBox="0 0 327.712 246.259">
  <g id="Group_228" data-name="Group 228" transform="matrix(1, -0.017, 0.017, 1, -3445.941, -125.36)">
    <path id="Path_168" data-name="Path 168" d="M3636.873,222.312" transform="translate(-35.287 -5.937)" fill="#d6e0ef"/>
    <path id="Path_169" data-name="Path 169" d="M3737.827,385.7c7.727-.051,34.277-12.93,37.249-10.75s17.832,30.315,17.832,30.315l-47.156,2.773Z" transform="translate(-53.526 -33.47)" fill="#a1a8b3"/>
    <path id="Path_170" data-name="Path 170" d="M3502.325,363.607c5.021,8.905,36.623,20.092,36.623,20.092l-15.906,24.976-43.567,16.943-9.335-1.729-11.238-9.757Z" transform="translate(-3.134 -31.465)" fill="#a1a8b3"/>
    <path id="Path_171" data-name="Path 171" d="M3507.988,358.92c21.13-27.655,34.786-42.484,60.314-48.865s15.993,20.339-.44,19.758-24.565,19.459-19.629,19.459,34.271-12.2,23.526-2.324-24.106,22.653-38.047,24.106-24.905-9.585-24.905-9.585Z" transform="translate(-12.002 -21.611)" fill="#d6e0ef"/>
    <path id="Path_172" data-name="Path 172" d="M3766.539,366.319c-9.84-33.383-17.289-52.115-38.847-67.2s-22.209,13.273-6.656,18.608,15.98,26.958,11.37,25.192-27.64-23.648-21.137-10.584,14.408,29.777,26.907,36.119,26.685-.042,26.685-.042Z" transform="translate(-48.521 -19.023)" fill="#d6e0ef"/>
    <path id="Path_173" data-name="Path 173" d="M3524.774,385.218c46.825-10.973,64.077-29.457,70.238-54.1s46.824,0,46.824,0,4.313,20.332,23.413,25.261,64.693,24.646,78.864,35.119,22.578,63.864,22.578,63.864-320.572-5.689-324.769-5.791,13.846-43.285,13.846-43.285Z" transform="translate(0 -23.616)" fill="#8d93ab"/>
    <path id="Path_174" data-name="Path 174" d="M3629.112,331.891c-21.869-27.972-58.994-114.429-20.342-130.7s82.028-8.882,84.987,34.658c2.262,33.3-18.874,102.148-34.639,102.148S3629.112,331.891,3629.112,331.891Z" transform="translate(-27.172 -0.686)" fill="#d6e0ef"/>
    <path id="Path_175" data-name="Path 175" d="M3584.654,286.268c0,3.912-1.067,24.895,8.891,23.117s8.18-26.047,8.18-34.184-17.848-.565-17.46,5.252Z" transform="translate(-25.781 -14.849)" fill="#a1a8b3"/>
    <path id="Path_176" data-name="Path 176" d="M3703.23,285.844c.288,12.968-7.205,40.636,4.323,32.566s9.23-36.582,4.183-41.347c-3.153-2.976-5.685,1.19-7.142,4.738A34.231,34.231,0,0,0,3703.23,285.844Z" transform="translate(-46.891 -15.645)" fill="#a1a8b3"/>
    <path id="Path_177" data-name="Path 177" d="M3687.6,266.156s5.033-64.305-26.366-65.875-60.443-1.963-62.6,57.7-9.42,4.71-9.42,4.71c.393-26.886-2.034-72.485,49.343-73.222s64.89,26.537,56.29,80.1C3694.358,271.286,3687.6,266.156,3687.6,266.156Z" transform="translate(-26.677)" fill="#a1a8b3"/>
    <path id="Path_178" data-name="Path 178" d="M3626.16,258.632c9.144-.4,13.564,9.785,8.771,10.657s-15.132.873-15.927-3.5S3626.16,258.632,3626.16,258.632Z" transform="translate(-32.048 -12.497)" fill="#a1a8b3"/>
    <path id="Path_179" data-name="Path 179" d="M3674.685,258.632c9.145-.4,13.565,9.785,8.77,10.657s-15.132.873-15.926-3.5S3674.685,258.632,3674.685,258.632Z" transform="translate(-40.816 -12.497)" fill="#a1a8b3"/>
  </g>
</svg>
