<svg xmlns="http://www.w3.org/2000/svg" xmlns:xlink="http://www.w3.org/1999/xlink" width="371" height="341" viewBox="0 0 371 341">
  <defs>
    <clipPath id="clip-path">
      <rect id="Rectangle_1184" data-name="Rectangle 1184" width="371" height="341" transform="translate(2719 2425)" fill="#393b44"/>
    </clipPath>
  </defs>
  <g id="Group_221" data-name="Group 221" transform="translate(-2719 -2425)">
    <g id="Mask_Group_9" data-name="Mask Group 9" clip-path="url(#clip-path)">
      <rect id="Rectangle_8" data-name="Rectangle 8" width="371" height="341" transform="translate(2719 2425)" fill="#393b44"/>
      <text id="Gratis" transform="translate(2880 2489)" fill="#f2e054" font-size="59" font-family="IndustryInc-Base, Industry Inc"><tspan x="0" y="0">Gratis</tspan></text>
      <g id="Group_220" data-name="Group 220" transform="matrix(1, -0.017, 0.017, 1, -725.671, 2382.269)">
        <path id="Path_168" data-name="Path 168" d="M3636.873,222.312" transform="translate(-23.327 -3.928)" fill="#d6e0ef"/>
        <path id="Path_169" data-name="Path 169" d="M3737.827,386.525c8.3-.055,36.834-13.895,40.029-11.553s19.162,32.577,19.162,32.577l-50.674,2.98Z" transform="translate(-35.394 -22.144)" fill="#a1a8b3"/>
        <path id="Path_170" data-name="Path 170" d="M3505.565,363.607c5.4,9.57,39.356,21.592,39.356,21.592l-17.093,26.839-46.818,18.207-10.032-1.858L3458.9,417.9Z" transform="translate(-2.053 -20.818)" fill="#a1a8b3"/>
        <path id="Path_171" data-name="Path 171" d="M3507.988,362.639c22.706-29.718,37.381-45.654,64.815-52.511s17.187,21.857-.473,21.232-26.4,20.911-21.094,20.911,36.828-13.108,25.281-2.5-25.9,24.343-40.885,25.9-26.764-10.3-26.764-10.3Z" transform="translate(-7.921 -14.299)" fill="#d6e0ef"/>
        <path id="Path_172" data-name="Path 172" d="M3770.748,371.66c-10.574-35.874-18.579-56-41.745-72.219s-23.867,14.264-7.153,20,17.172,28.97,12.218,27.072-29.7-25.413-22.714-11.374,15.483,32,28.915,38.814,28.677-.045,28.677-.045Z" transform="translate(-32.083 -12.586)" fill="#d6e0ef"/>
        <path id="Path_173" data-name="Path 173" d="M3531,390.072c50.319-11.791,68.858-31.655,75.479-58.138s50.318,0,50.318,0,4.635,21.849,25.16,27.146,69.52,26.484,84.748,37.739,24.262,68.629,24.262,68.629-344.491-6.113-349-6.223,14.879-46.515,14.879-46.515Z" transform="translate(0 -15.625)" fill="#8d93ab"/>
        <path id="Path_174" data-name="Path 174" d="M3631.884,342.236c-23.5-30.059-63.4-122.967-21.86-140.455s88.148-9.544,91.328,37.244c2.431,35.78-20.282,109.769-37.224,109.769S3631.884,342.236,3631.884,342.236Z" transform="translate(-17.958 -0.454)" fill="#d6e0ef"/>
        <path id="Path_175" data-name="Path 175" d="M3584.683,287.359c0,4.2-1.146,26.752,9.554,24.841s8.791-27.99,8.791-36.735-19.18-.607-18.763,5.644Z" transform="translate(-17.037 -9.825)" fill="#a1a8b3"/>
        <path id="Path_176" data-name="Path 176" d="M3703.389,286.575c.309,13.936-7.743,43.668,4.646,35s9.918-39.312,4.495-44.432c-3.388-3.2-6.109,1.279-7.675,5.092A36.78,36.78,0,0,0,3703.389,286.575Z" transform="translate(-31.004 -10.351)" fill="#a1a8b3"/>
        <path id="Path_177" data-name="Path 177" d="M3694.946,271.879s5.409-69.1-28.333-70.79-64.953-2.11-67.273,62-10.123,5.061-10.123,5.061c.422-28.892-2.185-77.893,53.024-78.686s69.732,28.517,60.49,86.08C3702.2,277.393,3694.946,271.879,3694.946,271.879Z" transform="translate(-17.63)" fill="#a1a8b3"/>
        <path id="Path_178" data-name="Path 178" d="M3626.7,258.632c9.826-.427,14.576,10.515,9.425,11.452s-16.261.938-17.116-3.762S3626.7,258.632,3626.7,258.632Z" transform="translate(-21.184 -8.268)" fill="#a1a8b3"/>
        <path id="Path_179" data-name="Path 179" d="M3675.223,258.632c9.827-.427,14.577,10.515,9.425,11.452s-16.26.938-17.115-3.762S3675.223,258.632,3675.223,258.632Z" transform="translate(-26.985 -8.268)" fill="#a1a8b3"/>
      </g>
      <text id="JEzelf" transform="translate(2841 2739)" fill="#fff" font-size="38" font-family="IndustryInc-Base, Industry Inc"><tspan x="0" y="0">JEzelf</tspan></text>
    </g>
  </g>
</svg>
