<svg xmlns="http://www.w3.org/2000/svg" width="371" height="341.436" viewBox="0 0 371 341.436">
  <rect id="Rectangle_1186" data-name="Rectangle 1186" width="371" height="341" fill="#393b44"/>
  <text id="_100" data-name="€100" transform="translate(212 57)" fill="#f2e054" font-size="59" font-family="IndustryInc-Base, Industry Inc"><tspan x="0" y="0">€100</tspan></text>
  <g id="Group_229" data-name="Group 229" transform="translate(-32.696 -115.107)">
    <g id="Laag_1" data-name="Laag 1" transform="translate(124.412 216.108)">
      <rect id="Rectangle_1188" data-name="Rectangle 1188" width="266.173" height="203.132" fill="#8d93ab"/>
    </g>
    <g id="Laag_2" data-name="Laag 2" transform="translate(34.457 217.494)">
      <ellipse id="Ellipse_27" data-name="Ellipse 27" cx="66.527" cy="64.688" rx="66.527" ry="64.688" fill="#a1a8b3"/>
    </g>
    <g id="Laag_3" data-name="Laag 3" transform="translate(64.367 255.98)">
      <path id="Path_187" data-name="Path 187" d="M86.772,366.185s-11.519-16.227-12.015-21.553-.248-20.067,0-23.04,1.858-17.093,1.982-20.314,6.07-17.218,6.07-17.713,4.459-10.776,5.45-10.9,11.024-4.087,15.36-3.964,13.253,1.362,18.084,1.61,19.819,3.1,21.058,5.079,4.459,5.7,4.459,11.891-1.982,25.145-1.486,27.127,2.477,14.864,1.486,17.466S143.626,345,143.131,345.5s-8.671,15.607-8.671,15.607-8.876,11.516-13.276,12.219-11.613,1.848-15.573.879S92.567,371.186,86.772,366.185Z" transform="translate(-74.47 -268.699)" fill="#d6e0ef"/>
    </g>
    <g id="Laag_5" data-name="Laag 5" transform="translate(83.82 362.508)">
      <path id="Path_188" data-name="Path 188" d="M100.908,414.763l11.691,3.344,15.3-2.662,6.82-5.261,3.118-.974-5.456,19.583,2.436,14.127,1.072,17.634-8.963-3.215-3.118-9.256-6.512-10.327-17.163-21.727Z" transform="translate(-100.129 -409.209)" fill="#a4aebc"/>
    </g>
    <g id="Laag_4" data-name="Laag 4" transform="translate(32.696 332.688)">
      <path id="Path_189" data-name="Path 189" d="M32.7,399.756s14.345-14.124,15.431-14.849,8.51-13.762,8.51-13.762l3.622-1.268s-.18,8.33,4.165,12.133,11.046,14.3,14.848,15.392,7.062,7.605,10.14,7.605,7.8,12,7.8,12l11.238,14.559v12.387l9.961,4.853-7.79-22.731,3.065-14.3,4.725-10.088,3.575-3.7,10.344,10.611V416s-4.186,8.357-4.709,10.707-1.7,2.481-1.7,6.529-.131,9.794-.131,13.319,2.22,8.358,2.22,8.358l4.318,1.306,1.337,9.953,1.381,1.727V474l2.418,10.133,2.763,8.406v1.2H32.7Z" transform="translate(-32.696 -369.877)" fill="#8d93ab"/>
    </g>
    <g id="Laag_6" data-name="Laag 6" transform="translate(60.26 321.251)">
      <path id="Path_190" data-name="Path 190" d="M69.052,366.229V370.6l2.088,7.237,4.425,3.749L80.3,388.1l6.091,6.4,5.05,2.707,3.814,3.54,3.319,1.2,3.091,2.637,5.068.364,9.688-1.973,5.147-.816,5.629-5.134,3.584-2.688,4.244-9.556,4.688-14.845-8.247-9-8.048-3.455-9.837-2.683-7.98.344-5.916,1.651-4.746.069-6.26-.206-3.439,2.408L81.116,363.8l-6.81-3.852-2.2-3.439-3.052.408Z" transform="translate(-69.052 -354.792)" fill="#a1a8b3"/>
    </g>
    <g id="Laag_7" data-name="Laag 7" transform="translate(137.472 381.892)">
      <path id="Path_191" data-name="Path 191" d="M170.895,499.826s22.853-13.263,24.165-17.494,2.48-18.381,2.917-20.422,2.955-4.377,2.955-4.377l1.422-10.033,3.792-4.408,13.713-7.149,2.188-1.167,4.96,1.9,9.19,3.063,4.814,3.5v2.188l-3.356.876-3.209-1.459-3.064-1.9L229.2,445.28s-.437,3.792-1.9,3.939-5.835,5.252-5.835,5.252l7.731-2.48,7.732-.729,5.981,1.459,4.23,5.105,1.6,4.522-1.9.875-2.042-.729,3.939,1.9,1.751,4.668-2.771,1.167-4.085-2.923-2.917-.564h-3.209l-1.313,2.029-1.167,4.522L231.383,480l-4.084,6.127-5.4,7.44-6.273,1.9-12.306,13.966H173.658Z" transform="translate(-170.895 -434.777)" fill="#d6e0ef"/>
    </g>
    <g id="Laag_8" data-name="Laag 8" transform="translate(157.697 371.972)">
      <path id="Path_192" data-name="Path 192" d="M199.245,450.023l49.41-5.786s.643-2.572.643-3.03,3.949-8.725,3.949-8.725l1.561-.459,2.137,28.562h-2.14l-5.446-8.53L199.245,457S195.479,453.421,199.245,450.023Z" transform="translate(-197.571 -424.19)" fill="#f1f1f1"/>
      <path id="Path_193" data-name="Path 193" d="M273.066,431.5l16.413-1.65,2.217,28.665L275.2,460.058Z" transform="translate(-215.83 -423.664)" fill="#a1a8b3"/>
      <path id="Path_194" data-name="Path 194" d="M321.126,421.692l-26.412,6.182,2.217,28.665,29.055,1.547S325.215,424.477,321.126,421.692Z" transform="translate(-221.065 -421.692)" fill="#5f5b5a"/>
    </g>
  </g>
  <text id="Kopie_door_een_Grootmeester" data-name="Kopie door een
Grootmeester" transform="translate(141 195)" fill="#fff" font-size="25" font-family="IndustryInc-Base, Industry Inc"><tspan x="0" y="0">Kopie door een </tspan><tspan x="0" y="25">Grootmeester</tspan></text>
</svg>
