<svg xmlns="http://www.w3.org/2000/svg" width="215.564" height="228.827" viewBox="0 0 215.564 228.827">
  <g id="Group_194" data-name="Group 194" transform="translate(-4274.906 -2299.621)">
    <path id="Path_134" data-name="Path 134" d="M4275.757,2392.9l106.081-92.672a2.473,2.473,0,0,1,3.138-.1l69.481,53.622a2.47,2.47,0,0,1,.959,1.839l35.054,37.243s-34.353,1.686-35.749,1.708l-177.3,2.69A2.473,2.473,0,0,1,4275.757,2392.9Z" fill="#d6e0ef"/>
    <path id="Path_135" data-name="Path 135" d="M4326.889,2565.717V2421.6H4306.2c-.417-.014,0,144.114,0,144.114" transform="translate(-9.504 -37.269)" fill="#d6e0ef"/>
    <path id="Path_136" data-name="Path 136" d="M4378.115,2565.717V2421.6h-20.691c-.418-.014,0,144.114,0,144.114" transform="translate(-25.155 -37.269)" fill="#d6e0ef"/>
    <path id="Path_137" data-name="Path 137" d="M4433.839,2565.717V2421.6h-20.691c-.418-.014,0,144.114,0,144.114" transform="translate(-42.181 -37.269)" fill="#d6e0ef"/>
    <path id="Path_138" data-name="Path 138" d="M4488.184,2565.717V2421.6h-20.692c-.417-.014,0,144.114,0,144.114" transform="translate(-58.784 -37.269)" fill="#d6e0ef"/>
    <path id="Path_139" data-name="Path 139" d="M4538.067,2565.717V2421.6h-20.691c-.417-.014,0,144.114,0,144.114" transform="translate(-74.025 -37.269)" fill="#d6e0ef"/>
    <rect id="Rectangle_1162" data-name="Rectangle 1162" width="88.018" height="21.357" rx="5.591" transform="translate(4335.269 2368.3)" fill="#8d93ab"/>
    <text id="BANK" transform="translate(4359.525 2384.593)" font-size="14" font-family="FatFrank-Heavy, FatFrank" font-weight="800"><tspan x="0" y="0">BANK</tspan></text>
    <rect id="Rectangle_1163" data-name="Rectangle 1163" width="88.018" height="21.357" rx="5.591" transform="translate(4337.264 2343.285)" fill="#8d93ab"/>
    <text id="NATIONALE" transform="translate(4343.287 2358.384)" font-size="14" font-family="FatFrank-Heavy, FatFrank" font-weight="800"><tspan x="0" y="0">NATIONALE</tspan></text>
  </g>
</svg>
