<svg xmlns="http://www.w3.org/2000/svg" xmlns:xlink="http://www.w3.org/1999/xlink" width="372.183" height="470.721" viewBox="0 0 372.183 470.721">
  <defs>
    <clipPath id="clip-path">
      <rect width="372.183" height="470.721" fill="none"/>
    </clipPath>
    <clipPath id="clip-path-2">
      <rect id="Rectangle_1145" data-name="Rectangle 1145" width="360.183" height="470.721" fill="none"/>
    </clipPath>
    <clipPath id="clip-path-3">
      <rect id="Rectangle_1173" data-name="Rectangle 1173" width="360.183" height="470.721" transform="translate(98.966 76.088)" fill="none"/>
    </clipPath>
  </defs>
  <g id="Repeat_Grid_4" data-name="Repeat Grid 4" clip-path="url(#clip-path)">
    <g id="Group_180" data-name="Group 180">
      <g id="Group_179" data-name="Group 179" clip-path="url(#clip-path-2)">
        <path id="Path_106" data-name="Path 106" d="M325.111,391.087V74.513l.672.449c7.32-1.06,47.352-8.548,30.144-43.517-11.224-22.81-41.436,0-41.436,0S323.125,0,297.222,0c-23.308,0-18.129,31.444-18.129,31.444h-198S86.273,0,62.96,0c-25.9,0-17.266,31.444-17.266,31.444s-30.216-22.81-41.439,0C-14.642,69.86,35.528,75.1,35.528,75.1V389.629S4.084,384.451,4.084,407.758c0,25.9,31.444,17.268,31.444,17.268s-22.813,30.213,0,41.436c38.415,18.9,43.663-31.267,43.663-31.267l-1.24,1.043H281.622v.08c1.06,7.32,8.546,47.352,43.517,30.144,22.81-11.224,0-41.436,0-41.436s31.444,8.634,31.444-17.268c0-23.308-31.444-18.129-31.444-18.129Z" transform="translate(0)" fill="#8f94a7"/>
        <rect id="Rectangle_1144" data-name="Rectangle 1144" width="228.557" height="338.57" transform="translate(66.059 68.334)" fill="#f1f3f9"/>
        <text id="pABLO_PICASSO" data-name="pABLO
PICASSO" transform="translate(93 82.022)" fill="#0b0b0b" font-size="30" font-family="IndustryInc-Base, Industry Inc"><tspan x="0" y="29">pABLO</tspan><tspan x="0" y="67">PICASSO</tspan></text>
        <g id="Group_210" data-name="Group 210" transform="translate(-98.983 -15.064)">
          <path id="Path_148" data-name="Path 148" d="M186.542,227.142,164.6,205.908V181.349s10.68-6.908,26.286,2.3c6.318,3.729,14.481,9.135,21.96,14.249,10.993,7.517,20.507,14.4,20.507,14.4Z" fill="#f2e054" stroke="#7a8297" stroke-miterlimit="10" stroke-width="4"/>
          <path id="Path_149" data-name="Path 149" d="M252.545,175.465s-18.808-4.775-39.694,22.435c12.931,9,20.507,14.4,20.507,14.4L285.8,196.442S276.593,174.185,252.545,175.465Z" transform="translate(5.179)" fill="none" stroke="#7a8297" stroke-miterlimit="10" stroke-width="4"/>
          <path id="Path_150" data-name="Path 150" d="M186.542,227.142l165.165-4.065s23.512-6.6,26.205-19.11c-.734-5.233-1.959-15.058-22.042-16.857-19.348.249-62.47,9.332-62.47,9.332Z" transform="translate(0)" fill="#dfe4f7" stroke="#7a8297" stroke-miterlimit="10" stroke-width="4"/>
          <path id="Path_151" data-name="Path 151" d="M186.542,263.345v-36.2l59.919,30.06L245.1,326.363s-22.174-4.777-32.245-13.65C207.558,307.253,188.5,281.09,186.542,263.345Z" transform="translate(0 8.08)" fill="#f2e054" stroke="#7a8297" stroke-miterlimit="10" stroke-width="4"/>
          <path id="Path_152" data-name="Path 152" d="M303.854,224.034c3.918,8.264,12.272,43.1,13.161,56.434a101.383,101.383,0,0,1-1.067,23.463l-6.159,1.8" transform="translate(10.169 6.529)" fill="none" stroke="#7a8297" stroke-miterlimit="10" stroke-width="4"/>
          <path id="Path_153" data-name="Path 153" d="M308.139,236.931l-48.71,4.119,13.65,80.308s34.58-10.92,39.358-18.2c.227-5.915-8.645-14.56-8.645-14.56l-20.956-18.655-1.445-1.287-5.966-5.311s4.707-7.053,20.177-6.143c5.915,1.138,12.285,4.323,15.925,11.376-6.825,4.1-6.37,4.322-11.375,5.46-7.735-.91-18.4-6.041-18.4-6.041" transform="translate(8.795 8.437)" fill="#343333" stroke="#7a8297" stroke-miterlimit="10" stroke-width="4"/>
          <path id="Path_154" data-name="Path 154" d="M216.5,234.552s10.358-7.387,14.3-6.894,12.187.862,16.249,6.894c-4.8,4.308-5.835,5.17-13.689,6.647C227.844,240.83,220.67,240.707,216.5,234.552Z" transform="translate(4.174 4.534)" fill="none" stroke="#7a8297" stroke-miterlimit="10" stroke-width="4"/>
          <path id="Path_155" data-name="Path 155" d="M228.336,235.783s1.855,5.211,3.438,5.314,4.317-2.648,4.933-4.166-.289-3.61-.883-4.472-3.2-4.186-3.2-4.186S226.452,231.834,228.336,235.783Z" transform="translate(4.52 4.572)" fill="none" stroke="#7a8297" stroke-miterlimit="10" stroke-width="4"/>
          <ellipse id="Ellipse_10" data-name="Ellipse 10" cx="3.629" cy="3.194" rx="3.629" ry="3.194" transform="translate(299.712 267.636)" fill="#7a8297"/>
          <path id="Path_156" data-name="Path 156" d="M277.447,326.973l11.105,19.061-2.617,2.766-4.829,3.458,3.3,4.322-3.3,7.089-3.659,5.187,3.659,12.726,7.273-4.254,14.7-29.392,9.367-28.181,3.507-15.824" transform="translate(9.524 16.66)" fill="none" stroke="#7a8297" stroke-miterlimit="10" stroke-width="4"/>
          <path id="Path_157" data-name="Path 157" d="M245.1,326.363l8.491-.147,8.385-2.6,11.107-2.26a15.331,15.331,0,0,1,4.368,5.615c-17.593,8.445-21.253,14.637-22.8,16.889s-2.252,9.289-2.955,12.245,4.232,11.541,4.232,11.541l8.716,12.245,16.467,1.689H254.224v-3.1l-5.63-25.193-17.855-31.129" transform="translate(6.025 16.66)" fill="#343333" stroke="#7a8297" stroke-miterlimit="10" stroke-width="4"/>
          <path id="Path_158" data-name="Path 158" d="M257.246,325.135s-.839-7.355,1.219-9.215,4.345-3.96,6.327-4.041,6.588,4.656,7.166,5.658a10.98,10.98,0,0,1,.884,2.915" transform="translate(6.84 11.792)" fill="none" stroke="#7a8297" stroke-miterlimit="10" stroke-width="4"/>
        </g>
        <path id="Path_159" data-name="Path 159" d="M35.952,365.29S31.721,344.555,51.684,338.8" fill="none" stroke="#707070" stroke-width="1"/>
      </g>
      <g id="Rectangle_1146" data-name="Rectangle 1146" transform="translate(93 389.022)" fill="#fff" stroke="#707070" stroke-width="1">
        <rect width="174" height="60" stroke="none"/>
        <rect x="0.5" y="0.5" width="173" height="59" fill="none"/>
      </g>
      <text id="Moeilijk_" data-name="Moeilijk " transform="translate(112 401.022)" fill="#0b0b0b" font-size="30" font-family="IndustryInc-Base, Industry Inc"><tspan x="0" y="29">Moeilijk </tspan></text>
      <path id="Path_114" data-name="Path 114" d="M53.776,282.18c.717-.11,1.283-.185,1.283-.185l3.534-7,5.427-10.749L184,261.984V294.2L67.3,296.987,55.059,282.18" transform="translate(-3 57)" fill="#fff" stroke="#707070" stroke-width="1"/>
      <text id="_30.000" data-name="€30.000" transform="translate(87.259 343.927) rotate(-3)" fill="#0b0b0b" font-size="18" font-family="IndustryInc-Base, Industry Inc"><tspan x="0" y="0">€30.000</tspan></text>
    </g>
  </g>
</svg>
