<svg xmlns="http://www.w3.org/2000/svg" width="234.516" height="212.901" viewBox="0 0 234.516 212.901">
  <g id="Group_193" data-name="Group 193" transform="translate(-4738.649 -2267.929)">
    <rect id="Rectangle_1156" data-name="Rectangle 1156" width="196.54" height="132.723" transform="translate(4757.637 2348.107)" fill="#d6e0ef"/>
    <rect id="Rectangle_1157" data-name="Rectangle 1157" width="234.516" height="38.76" transform="translate(4738.649 2315.24)" fill="#8d93ab"/>
    <rect id="Rectangle_1158" data-name="Rectangle 1158" width="157.283" height="36.512" transform="translate(4771.883 2305.122)" fill="#fff" stroke="#8d93ab" stroke-miterlimit="10" stroke-width="8"/>
    <rect id="Rectangle_1159" data-name="Rectangle 1159" width="58.83" height="34.225" transform="matrix(0.891, -0.454, 0.454, 0.891, 4763.723, 2298.65)" fill="#fff" stroke="#8d93ab" stroke-miterlimit="10" stroke-width="6"/>
    <path id="Path_122" data-name="Path 122" d="M4781.19,2300h35.364L4833,2275.25" transform="translate(-17.467 -1.35)" fill="none" stroke="#8d93ab" stroke-miterlimit="10" stroke-width="6"/>
    <g id="Group_192" data-name="Group 192" transform="translate(4807.178 2317.701)">
      <path id="Path_123" data-name="Path 123" d="M4860.62,2349.669a2.1,2.1,0,0,1,2.2,2.2v2.822a2.1,2.1,0,0,1-2.2,2.2h-3.471v3.935h-2.232v-11.157Zm-.558,5.113a.474.474,0,0,0,.526-.526V2352.3a.474.474,0,0,0-.526-.527h-2.914v3.006Z" transform="translate(-4854.917 -2349.606)"/>
      <path id="Path_124" data-name="Path 124" d="M4876.872,2349.562a2.1,2.1,0,0,1,2.2,2.2v6.881a2.1,2.1,0,0,1-2.2,2.2h-3.735a2.1,2.1,0,0,1-2.2-2.2v-6.881a2.1,2.1,0,0,1,2.2-2.2Zm-.03,2.635a.474.474,0,0,0-.528-.526H4873.7a.474.474,0,0,0-.528.526v6.012a.475.475,0,0,0,.528.528h2.618a.475.475,0,0,0,.528-.528Z" transform="translate(-4861.495 -2349.562)"/>
      <path id="Path_125" data-name="Path 125" d="M4893.449,2352.2a.474.474,0,0,0-.527-.526h-2.231a.474.474,0,0,0-.528.526v1.054c0,.342.186.449.528.528l2.882.619c1.209.263,2.231.992,2.231,2.232v2.014a2.1,2.1,0,0,1-2.2,2.2h-3.471a2.1,2.1,0,0,1-2.2-2.2v-1.426h2.169v.991a.474.474,0,0,0,.527.528h2.417a.475.475,0,0,0,.528-.528v-1.177c0-.341-.186-.449-.528-.528l-2.882-.619c-1.208-.264-2.23-.992-2.23-2.231v-1.892a2.1,2.1,0,0,1,2.2-2.2h3.285a2.1,2.1,0,0,1,2.2,2.2v1.3h-2.169Z" transform="translate(-4868.473 -2349.562)"/>
      <path id="Path_126" data-name="Path 126" d="M4908.36,2351.745v9.081h-2.231v-9.081h-2.914v-2.076h8.058v2.076Z" transform="translate(-4874.748 -2349.606)"/>
      <path id="Path_127" data-name="Path 127" d="M4921.83,2357.974v2.851h-2.2v-11.157h2.2v5.238l3.859-5.238h2.619l-3.425,4.4,3.595,6.757h-2.511l-2.571-4.85Z" transform="translate(-4881.488 -2349.606)"/>
      <path id="Path_128" data-name="Path 128" d="M4937.775,2360.826h-2.308l3.595-11.157h2.6l3.595,11.157h-2.4l-.729-2.511h-3.61Zm1.364-4.618h2.386l-1.177-4.091Z" transform="translate(-4887.99 -2349.606)"/>
      <path id="Path_129" data-name="Path 129" d="M4963.189,2349.669v11.157h-2.4l-4.106-7.608v7.608h-2.093v-11.157h2.4l4.106,7.609v-7.609Z" transform="translate(-4895.841 -2349.606)"/>
      <path id="Path_130" data-name="Path 130" d="M4977.07,2351.745v9.081h-2.231v-9.081h-2.914v-2.076h8.059v2.076Z" transform="translate(-4902.959 -2349.606)"/>
      <path id="Path_131" data-name="Path 131" d="M4993.512,2349.562a2.1,2.1,0,0,1,2.2,2.2v6.881a2.1,2.1,0,0,1-2.2,2.2h-3.734a2.1,2.1,0,0,1-2.2-2.2v-6.881a2.1,2.1,0,0,1,2.2-2.2Zm-.03,2.635a.474.474,0,0,0-.527-.526h-2.619a.474.474,0,0,0-.527.526v6.012a.475.475,0,0,0,.527.528h2.619a.475.475,0,0,0,.527-.528Z" transform="translate(-4909.386 -2349.562)"/>
      <path id="Path_132" data-name="Path 132" d="M5010.585,2349.562a2.1,2.1,0,0,1,2.2,2.2v6.881a2.1,2.1,0,0,1-2.2,2.2h-3.735a2.1,2.1,0,0,1-2.2-2.2v-6.881a2.1,2.1,0,0,1,2.2-2.2Zm-.03,2.635a.474.474,0,0,0-.528-.526h-2.619a.473.473,0,0,0-.526.526v6.012a.474.474,0,0,0,.526.528h2.619a.475.475,0,0,0,.528-.528Z" transform="translate(-4916.396 -2349.562)"/>
      <path id="Path_133" data-name="Path 133" d="M5028,2360.826l-1.8-4.137h-1.8v4.137h-2.232v-11.157h5.687a2.1,2.1,0,0,1,2.2,2.2v2.619a2.075,2.075,0,0,1-1.519,2.107l1.86,4.23Zm-.17-8.523a.475.475,0,0,0-.528-.527h-2.9v2.836h2.9a.474.474,0,0,0,.528-.526Z" transform="translate(-4923.59 -2349.606)"/>
    </g>
    <rect id="Rectangle_1160" data-name="Rectangle 1160" width="49.788" height="77.506" transform="translate(4789.628 2403.324)"/>
    <rect id="Rectangle_1161" data-name="Rectangle 1161" width="75.692" height="54.587" transform="translate(4859.337 2398.512)" fill="#fff"/>
  </g>
</svg>
