<svg xmlns="http://www.w3.org/2000/svg" width="125.526" height="234.023" viewBox="0 0 125.526 234.023">
  <g id="Group_196" data-name="Group 196" transform="translate(-4647.182 -2974.821)">
    <g id="Group_195" data-name="Group 195" transform="translate(4647.182 2974.821)">
      <path id="Path_140" data-name="Path 140" d="M4647.182,2974.821l9.125,227.311,113.226,6.712L4772.708,2982Z" transform="translate(-4647.182 -2974.821)" fill="#8d93ab"/>
      <path id="Path_141" data-name="Path 141" d="M4661.666,3002.621l8.183,203.821,100.334,3.905L4773,3008.989Z" transform="translate(-4654.57 -2989.002)" fill="none" stroke="#d6e0ef" stroke-miterlimit="10" stroke-width="7"/>
      <path id="Path_142" data-name="Path 142" d="M4742.5,3138.1a29.117,29.117,0,1,0,29.12,29.12A29.118,29.118,0,0,0,4742.5,3138.1Zm0,46.966a17.849,17.849,0,1,1,17.847-17.847A17.846,17.846,0,0,1,4742.5,3185.069Z" transform="translate(-4680.95 -3058.111)" fill="#d6e0ef"/>
      <circle id="Ellipse_9" data-name="Ellipse 9" cx="5.689" cy="5.689" r="5.689" transform="translate(55.862 103.42)" fill="#d6e0ef"/>
      <path id="Path_143" data-name="Path 143" d="M4780.008,3176.567c.882-3.263,3.527-13.053,6.879-13.406s6.263,5.115,6.263,5.115-9.883,4.862-11.6,12.265" transform="translate(-4714.937 -3070.885)" fill="#d6e0ef"/>
      <path id="Path_144" data-name="Path 144" d="M4740.524,3175.671c-4.638-1.687-9.487-13.756-7.8-14.626s-16.34,8.687-16.34,8.687l5.395,3.474s12.316,8.79,17.27,6.682" transform="translate(-4682.482 -3069.785)" fill="#d6e0ef"/>
      <path id="Path_145" data-name="Path 145" d="M4774.584,3203.574c2.964,3.6,9.106,10.854,8.379,13.227s-7.267,2.621-7.267,2.621l-6.677-.879c2.847-2.8,3.673-4.161,3.862-9.067s-1.739-6.638-1.739-6.638Z" transform="translate(-4709.331 -3091.132)" fill="#d6e0ef"/>
      <rect id="Rectangle_1164" data-name="Rectangle 1164" width="18.937" height="26.9" transform="translate(52.705 47.69)" fill="none" stroke="#d6e0ef" stroke-miterlimit="10" stroke-width="2"/>
      <path id="Path_146" data-name="Path 146" d="M4774.736,3098.736h-9.312l3.9-9.2a3.168,3.168,0,1,1,2.976.218Z" transform="translate(-4707.497 -3030.354)" fill="none" stroke="#d6e0ef" stroke-miterlimit="10" stroke-width="2"/>
    </g>
    <rect id="Rectangle_1165" data-name="Rectangle 1165" width="62.055" height="14.406" transform="translate(4678.328 2981.238)" fill="#fff" stroke="#8d93ab" stroke-miterlimit="10" stroke-width="3.797"/>
    <text id="STAATKLUIS" transform="translate(4685.744 2991.409)" font-size="9" font-family="FatFrank-Heavy, FatFrank" font-weight="800"><tspan x="0" y="0">STAATKLUIS</tspan></text>
  </g>
</svg>
