<svg xmlns="http://www.w3.org/2000/svg" width="371" height="341" viewBox="0 0 371 341">
  <rect id="Rectangle_1187" data-name="Rectangle 1187" width="371" height="341" fill="#393b44"/>
  <text id="Kopie_door_een_student" data-name="Kopie door
een student" transform="translate(69 69)" fill="#fff" font-size="27" font-family="IndustryInc-Base, Industry Inc"><tspan x="53.293" y="26">Kopie door </tspan><tspan x="41.616" y="56">een student</tspan></text>
  <text id="_50" data-name="€50" transform="translate(233 57)" fill="#f2e054" font-size="59" font-family="IndustryInc-Base, Industry Inc"><tspan x="0" y="0">€50</tspan></text>
  <g id="Group_230" data-name="Group 230" transform="translate(-109.527 -129.744)">
    <g id="Laag_6" data-name="Laag 6" transform="translate(315.128 266.823)">
      <path id="Path_195" data-name="Path 195" d="M336.473,435.383l28.907-8.578,40.3,27.776v13.233l-5.933,1.333H366.437l-32.9-31.3Z" transform="translate(-333.535 -280.8)" fill="#fff"/>
      <path id="Path_196" data-name="Path 196" d="M364.437,397.272l25.836-117.3,63.339-12.5,17.71,3.334L438.194,426.441,423.4,425.4l-55.838-22.919Z" transform="translate(-336.12 -267.469)" fill="#fff"/>
    </g>
    <g id="Laag_4" data-name="Laag 4" transform="translate(308.39 415.444)">
      <path id="Path_197" data-name="Path 197" d="M362.3,466.182s4.746-2.826,5.3-3.385a40.02,40.02,0,0,1,5.087-3.634c.335,0,6.99.224,8.5.224a54.285,54.285,0,0,1,6.262,1.006l9,.224,6.095,3.467-1.342,4.529-.168,1.062,1.119,2.181-.951,3.243-2.459,2.181-.168,1.956-.616,2.069-2.068.615L396.9,483.2l.224,2.069-.168,1.747H369.169Z" transform="translate(-329.203 -432.128)" fill="#d6e0ef"/>
      <path id="Path_198" data-name="Path 198" d="M327.1,429.659h13.417l9.717.18,6.535,3.44,6.019,5.5-.989,2.107-4.687-.688-3.4-2.193-1.548.86-1.376.344-4.773-2.15-4.687.172-4.859,1.935-3.1,2.709,3.741,3.569,5.933,2.58,2.881,2.709-1.72,2.838-3.4,1.247-4.128-2.021-6.13-2.147-4.383-1.038.923-19.955" transform="translate(-326.181 -429.659)" fill="#d6e0ef"/>
    </g>
    <g id="Laag_5" data-name="Laag 5" transform="translate(113.527 259.744)">
      <path id="Path_199" data-name="Path 199" d="M169.706,368.685s6.137-3.75,7.461-5.745,5.295-7.185,5.295-10.511-2.046-10.379-2.046-10.379l-1.448-4.515,5.539-2.67,15.4,13.306,22.02,3.6,3.73.919s-3.253-1.063-2.408,2,1.807,5.055.844,7.184-7.34,16.5-6.979,17.564l.361,1.065-12.033-5.056-8.664-4.391-8.663-2.371L180.536,368Z" transform="translate(-118.228 -266.029)" fill="#a4aebc"/>
      <path id="Path_200" data-name="Path 200" d="M228.31,290.625s-2.949-10.87-3.707-11.123-5.141-7.247-5.983-7.332-11.124-9.438-11.124-9.438-10.786-1.685-11.966-2.191a16.833,16.833,0,0,0-6.151-.759c-1.938.169-6.32,1.012-8.259,3.793a16.075,16.075,0,0,0-2.107,3.455s-3.876-1.6-6.4.253-7.922,6.236-9.1,8.342-5.141,7.416-6.152,10.281-2.022,11.714-1.011,13.483,1.938,7.416,1.938,9.86,1.265,8.849,2.36,9.775a15.345,15.345,0,0,0,2.36,1.6s-4.658,2.349-5.124,5.458.312,9.584.156,9.688-4.4,2.436-4.4,2.436-3.658,1.022-6.183,5.65-3.487,3.426-3.546,6.792,0,9.257,0,9.257-5.528,18.758-6.635,21.474-2.414,3.42-4.425,10.46-2.919,12.215-2.919,12.215a35.774,35.774,0,0,0-2.978,5.7c-1.036,2.72-.389,7.123,0,9.583s-.13,13.467-2.849,15.152-7.9,5.309-8.417,9.324-3.5,13.467-1.425,13.6,8.158,4.532,8.288,5.827-4.274,4.921-5.569,4.921-2.331,2.183-2.331,2.183h14.115s7.252-7.751,7.252-12.8,1.554-17.353,1.554-17.353l.648-6.346,5.807-26.379,8.513-33.239s6.056-7.757,7.611-8.313,4.866-3.506,4.866-3.506,4.307-2.6,5.468-3.352,4.694-5.654,4.694-5.654l3.434-6.613.4-5.4.859-4.392,1.262-3.231.859-2.02v-4.091l-.936-10.054s-2.338-9.352-1.4-17.185,3.508-22.329,3.975-22.68,2.973-.142,11.115-3.065,20.535,1.43,20.535,1.43l6.179,4.048Z" transform="translate(-113.527 -259.744)" fill="#a1a8b3"/>
      <path id="Path_201" data-name="Path 201" d="M168.294,371.477s-7.081,4.222-8.8,6.18-4.923,5.884-4.923,5.884l-5.425,21.181-6.638,28.185-2.384,11.5-.853,7.875-.74,6.988v11.26l-.594,8.587,212.62.546s-3.75-18.93-5.2-20.139-4.6-1.089-4.6-1.089l-6.411.847-12.7,4.113-14.514,3.386L288.27,471.01l-12.673.125-22.378,1.038s-7.151.346-7.613-1.038.741-4.729-1.36-4.959-4.868-2.654-4.868-2.654l4.868.231s6.666.462,7.589-1.154,14.188-7.5,14.3-8.766,6-5.883,7.5-5.883,6.228.807,9.574.807,27.222-1.845,27.222-1.845l4.383-1.154-4.383-1.038.923-19.955-23.185,2.319-7.517,1.879-16.914,4.28-28.5,2.923S229.912,420.194,227.3,418s-7.309-7.726-7.621-9.71-5.325-14.825-5.325-14.825l.1-10.99-11.672-3.992-10.239-4.823-8.278-2.5h-8.733Z" transform="translate(-115.57 -269.066)" fill="#8d93ab"/>
    </g>
    <g id="Laag_2" data-name="Laag 2" transform="translate(162.734 271.91)">
      <path id="Path_202" data-name="Path 202" d="M223.332,350.611s-19.479,3-32.215-6.593a106.938,106.938,0,0,1-7.792-10.038,2.783,2.783,0,0,1-2.7,1.648c-2.1,0-7.491-5.094-7.491-5.094l-4.2-5.694s-3.3-8.091-.75-9.889c3.746-.3,9.291,1.049,9.291,1.049l-1.948-11.538s-1.5-24.573,17.681-29.518c10.189-.6,14.683-2.847,18.729-1.5s12.886,4.5,14.385,6.593,6.593,13.635,6.593,13.635,3.6,14.683,5.094,16.482,1.648,14.084,1.648,14.834-1.648,7.192-2.1,9.14-3.446,12.287-5.844,13.935S223.332,350.611,223.332,350.611Z" transform="translate(-167.226 -273.021)" fill="#d6e0ef"/>
    </g>
    <g id="Laag_7" data-name="Laag 7" transform="translate(354.32 278.214)">
      <path id="Path_203" data-name="Path 203" d="M394,288.6l-17.693,80.634,50.614,14.358L449.834,279.9Z" transform="translate(-376.305 -279.9)" fill="#5f5b5a"/>
    </g>
  </g>
</svg>
