<svg xmlns="http://www.w3.org/2000/svg" xmlns:xlink="http://www.w3.org/1999/xlink" width="372.183" height="470.721" viewBox="0 0 372.183 470.721">
  <defs>
    <clipPath id="clip-path">
      <rect width="372.183" height="470.721" fill="none"/>
    </clipPath>
    <clipPath id="clip-path-2">
      <rect id="Rectangle_1145" data-name="Rectangle 1145" width="360.183" height="470.721" fill="none"/>
    </clipPath>
    <clipPath id="clip-path-3">
      <rect id="Rectangle_1173" data-name="Rectangle 1173" width="360.183" height="470.721" transform="translate(98.966 76.088)" fill="none"/>
    </clipPath>
  </defs>
  <g id="Repeat_Grid_6" data-name="Repeat Grid 6" clip-path="url(#clip-path)">
    <g id="Group_180" data-name="Group 180">
      <g id="Group_179" data-name="Group 179" clip-path="url(#clip-path-2)">
        <path id="Path_106" data-name="Path 106" d="M325.111,391.087V74.513l.672.449c7.32-1.06,47.352-8.548,30.144-43.517-11.224-22.81-41.436,0-41.436,0S323.125,0,297.222,0c-23.308,0-18.129,31.444-18.129,31.444h-198S86.273,0,62.96,0c-25.9,0-17.266,31.444-17.266,31.444s-30.216-22.81-41.439,0C-14.642,69.86,35.528,75.1,35.528,75.1V389.629S4.084,384.451,4.084,407.758c0,25.9,31.444,17.268,31.444,17.268s-22.813,30.213,0,41.436c38.415,18.9,43.663-31.267,43.663-31.267l-1.24,1.043H281.622v.08c1.06,7.32,8.546,47.352,43.517,30.144,22.81-11.224,0-41.436,0-41.436s31.444,8.634,31.444-17.268c0-23.308-31.444-18.129-31.444-18.129Z" transform="translate(0)" fill="#8f94a7"/>
        <rect id="Rectangle_1144" data-name="Rectangle 1144" width="228.557" height="338.57" transform="translate(66.059 68.334)" fill="#f1f3f9"/>
        <text id="Vincent_Van_Gogh" data-name="Vincent
Van Gogh" transform="translate(93 82.022)" fill="#0b0b0b" font-size="30" font-family="IndustryInc-Base, Industry Inc, sans-serif"><tspan x="0" y="29">Vincent</tspan><tspan x="0" y="67">Van Gogh</tspan></text>
        <path id="Path_159" data-name="Path 159" d="M35.952,365.29S31.721,344.555,51.684,338.8" fill="none" stroke="#707070" stroke-width="1"/>
        <g id="Group_211" data-name="Group 211" transform="translate(-58.785 16.797)">
          <path id="Path_160" data-name="Path 160" d="M125.285,196.86s5.586,17.569,12.821,22.22,17.052,12.4,28.421,10.335,23.492-4.147,27.963-6.621,20.046-14.993,22.084-15.866,12.227-8.006,16.594-8.589,24.018,1.456,28.385,1.892,15.721,1.747,19.505,2.038,15.721,3.493,21.4,8.006,12.518,6.55,13.1,18.2c.474,9.462,4.79,16.809,1.317,21.652a9.544,9.544,0,0,1-3.792,2.948c-9.462,4.513-14.847,15.573-28.676,11.28s-20.524-6.039-20.524-14.336-6.551-14.847.873-11.936-.847-7.16-6.516-7.521-10.734-5.669-15.559-.965-11.337,2.533-13.026,10.614-4.7,9.407-2.171,16.04,4.223,16.429,12.488,21.234,5.189,12.877,16.529,12.3,21.142-.557,30.56-6.525,15.568-18.532,25.947-16.19,16.145-3.424,16.337,4.072,6.343,11.937-.961,12.119-9.8,8.255-9.033,1.335,4.613-9.61,0-9.994-8.65-.961-8.841,2.306,2.691,10.187,3.268,10.187,7.88,2.721,7.88,2.721l10.292,2.469s6.815.193,9.121-2.5,10.187-14.608,10.187-15.377-3.075-6.989-3.075-8.012-10.764-12.362-10.764-12.362l-12.56-2.987-5.537-2.256-.393-1.824" transform="translate(0 -20.473)" fill="none" stroke="#7a8297" stroke-miterlimit="10" stroke-width="4"/>
          <path id="Path_161" data-name="Path 161" d="M125.285,274.967A21.9,21.9,0,0,0,140.4,282.35c9.619.465,17.72.971,24.554-2.319s33.161-11.391,33.161-14.176,23.036-13.923,24.3-15.442,11.9-11.138,20.757-11.138,21.01-1.013,21.01,3.544,3.268,12.256,3.268,12.256" transform="translate(0 -38.472)" fill="none" stroke="#7a8297" stroke-miterlimit="10" stroke-width="4"/>
          <circle id="Ellipse_11" data-name="Ellipse 11" cx="14.245" cy="14.245" r="14.245" transform="translate(142.498 148.725)" fill="#f2e054" stroke="#7a8297" stroke-miterlimit="10" stroke-width="4"/>
          <circle id="Ellipse_12" data-name="Ellipse 12" cx="5.244" cy="5.244" r="5.244" transform="translate(185.881 154.238)" fill="none" stroke="#7a8297" stroke-miterlimit="10" stroke-width="4"/>
          <circle id="Ellipse_13" data-name="Ellipse 13" cx="9.741" cy="9.741" r="9.741" transform="translate(216.356 151.039)" fill="none" stroke="#7a8297" stroke-miterlimit="10" stroke-width="4"/>
          <circle id="Ellipse_14" data-name="Ellipse 14" cx="7.27" cy="7.27" r="7.27" transform="translate(244.562 157.437)" fill="#fff" stroke="#7a8297" stroke-miterlimit="10" stroke-width="4"/>
          <circle id="Ellipse_15" data-name="Ellipse 15" cx="10.76" cy="10.76" r="10.76" transform="translate(182.042 176.387)" fill="none" stroke="#7a8297" stroke-miterlimit="10" stroke-width="4"/>
          <circle id="Ellipse_16" data-name="Ellipse 16" cx="13.667" cy="13.667" r="13.667" transform="translate(289.051 157.437)" fill="#fff" stroke="#7a8297" stroke-miterlimit="10" stroke-width="4"/>
          <circle id="Ellipse_17" data-name="Ellipse 17" cx="9.45" cy="9.45" r="9.45" transform="translate(321.037 189.422)" fill="#f2e054" stroke="#7a8297" stroke-miterlimit="10" stroke-width="4"/>
          <circle id="Ellipse_18" data-name="Ellipse 18" cx="19.628" cy="19.628" r="19.628" transform="translate(203.562 257.174)" fill="none" stroke="#7a8297" stroke-miterlimit="10" stroke-width="4"/>
          <circle id="Ellipse_19" data-name="Ellipse 19" cx="7.851" cy="7.851" r="7.851" transform="translate(149.476 251.94)" fill="#f2e054" stroke="#7a8297" stroke-miterlimit="10" stroke-width="4"/>
          <circle id="Ellipse_20" data-name="Ellipse 20" cx="6.169" cy="6.169" r="6.169" transform="translate(211.994 219.663)" fill="none" stroke="#7a8297" stroke-miterlimit="10" stroke-width="4"/>
          <circle id="Ellipse_21" data-name="Ellipse 21" cx="6.106" cy="6.106" r="6.106" transform="translate(129.122 246.593)" fill="none" stroke="#7a8297" stroke-miterlimit="10" stroke-width="4"/>
          <path id="Path_162" data-name="Path 162" d="M201.623,167.442s-2.908,9.586-2.908,11.04V190.4l-2.035,10.759,2.471,10.178V222.39l-2.471,5.234-2.623,14.248-4.356-1.91-1.454-14.955L185.63,244.2l4.362,11.725,3.635,14.821v9.026l-5.38-9.026-2.617,10.384v31.113l4.362,4.071,1.454,6.979-5.816,6.4L180.4,340.738a12.059,12.059,0,0,0,0,3.78c.291,2.617-2,11.34-.129,12.5s.129,8.724,4.491,9.014,9.3,13.085,9.3,13.085L196.1,384.8l78.8-1.029s6.688-3.489,3.78-8.432-7.56-5.234-11.05-10.759-11.049-5.816-8.723-11.34,5.525-6.107,6.979-12.213-1.822,2.036-4.546,2.617-6.5,1.454-6.5,1.454,1.745-7.56,0-11.05-3.489-9.886-8.578-13.666-14.991-16.493-16.79-22.908-2.256-1.518-2.838,4.88.441,19.191,2.838,20.936-9.955.872-10.031-6.979,3.413-18.028,2.25-21.808-5.193,17.283-5.213,2.972-7.136-21.872-4.6-29.724,4.575-14.283,1.086-15.574-1.086-18.384-1.086-18.384l-2.929-10.531-5.873-12.794-.872-15.361,2.906-15.172Z" transform="translate(-23.069 -7.961)" fill="#343333"/>
          <path id="Path_163" data-name="Path 163" d="M125.285,418.2s4.97,3.4,9.943,6.024,6.284,4.715,8.9,4.191,5.762-.262,10.477-2.1a44.473,44.473,0,0,1,10.571-2.329l62.246-1.765s13.842-9.527,17.136-9.789,7.7-2.1,11.783,0,6.181,6.286,8.276,6.286,21.217-8.417,21.217-8.417,10.216-7.289,18.6-8.735,13.358-5.636,18.859-4.327,11.525,3.143,15.192,5.762,14.916,3.143,14.916,3.143V395.938L332.984,398.3" transform="translate(0 -105.145)" fill="none" stroke="#7a8297" stroke-miterlimit="10" stroke-width="4"/>
        </g>
      </g>
      <g id="Rectangle_1146" data-name="Rectangle 1146" transform="translate(92 389.022)" fill="#fff" stroke="#707070" stroke-width="1">
        <rect width="184" height="60" stroke="none"/>
        <rect x="0.5" y="0.5" width="183" height="59" fill="none"/>
      </g>
      <text id="Gemiddeld" transform="translate(99 401.022)" fill="#0b0b0b" font-size="30" font-family="IndustryInc-Base, Industry Inc"><tspan x="0" y="29">Gemiddeld</tspan></text>
      <path id="Path_114" data-name="Path 114" d="M53.776,282.18c.717-.11,1.283-.185,1.283-.185l3.534-7,5.427-10.749L184,261.984V294.2L67.3,296.987,55.059,282.18" transform="translate(-3 57)" fill="#fff" stroke="#707070" stroke-width="1"/>
      <text id="_5.000" data-name="€5.000" transform="translate(87.259 343.927) rotate(-3)" fill="#0b0b0b" font-size="18" font-family="IndustryInc-Base, Industry Inc"><tspan x="0" y="0">€5.000</tspan></text>
    </g>
  </g>
</svg>
