<svg xmlns="http://www.w3.org/2000/svg" width="371" height="341" viewBox="0 0 371 341">
  <g id="Group_219" data-name="Group 219" transform="translate(-3598 -2425)">
    <rect id="Rectangle_26" data-name="Rectangle 26" width="371" height="341" transform="translate(3598 2425)" fill="#393b44"/>
    <text id="_50" data-name="€50" transform="translate(3831 2489)" fill="#f2e054" font-size="59" font-family="IndustryInc-Base, Industry Inc"><tspan x="0" y="0">€50</tspan></text>
    <g id="Group_218" data-name="Group 218" transform="translate(1034.029 4358.546) rotate(-39)">
      <path id="Path_165" data-name="Path 165" d="M3173.733,343.01c-7.526,12.081-23.288,91.672,32.181,149.47s93.154-120.889,73.253-147.141-60.55-32.181-60.55-32.181-7.2-2.964-22.442,8.469S3181.778,330.1,3173.733,343.01Z" fill="#8d93ab"/>
      <circle id="Ellipse_22" data-name="Ellipse 22" cx="59.748" cy="59.748" r="59.748" transform="translate(3164.657 231.575)" fill="#d6e0ef"/>
      <circle id="Ellipse_23" data-name="Ellipse 23" cx="12.073" cy="12.073" r="12.073" transform="translate(3270.89 281.728)" fill="#d6e0ef"/>
      <circle id="Ellipse_24" data-name="Ellipse 24" cx="12.073" cy="12.073" r="12.073" transform="translate(3152.584 281.728)" fill="#d6e0ef"/>
      <path id="Path_166" data-name="Path 166" d="M3203.994,299.69h43.7C3247.7,317.668,3206.063,322.391,3203.994,299.69Z" fill="#8d93ab"/>
      <circle id="Ellipse_25" data-name="Ellipse 25" cx="10.494" cy="10.494" r="10.494" transform="translate(3199.504 269.395)" fill="#8d93ab"/>
      <circle id="Ellipse_26" data-name="Ellipse 26" cx="10.625" cy="10.625" r="10.625" transform="translate(3230.987 268.083)" fill="#8d93ab"/>
      <path id="Path_167" data-name="Path 167" d="M3221.112,240.682c2.27-10.373,2.27-20.422,16.857-16.532s1.538,18.153-1.986,14.587,1.338-6.963,1.338-6.963c.648-7.624-5.687-6.373-7.919-3.591S3221.112,240.682,3221.112,240.682Z" fill="#8d93ab"/>
    </g>
    <text id="Wonder_kind" data-name="Wonder kind" transform="translate(3655 2739)" fill="#fff" font-size="38" font-family="IndustryInc-Base, Industry Inc"><tspan x="0" y="0">Wonder kind</tspan></text>
  </g>
</svg>
